<svg width="80" height="12" viewBox="0 0 80 12" fill="none" xmlns="http://www.w3.org/2000/svg">
<path d="M3.96778 5.62747C2.7554 5.76934 2.0941 6.80972 2.10985 7.70822C2.12559 8.8747 2.80264 9.85202 4.01501 9.9466C4.86525 10.0097 5.66825 9.4737 5.93592 8.71707L7.98279 9.31607C7.38447 11.0343 5.80996 12.0746 3.92054 11.9958C1.82644 11.917 0 10.3407 0 7.69246C0 5.37526 2.01538 3.56249 4.01501 3.54673C6.3138 3.53096 7.4632 4.94965 7.90406 6.27377L5.92017 6.80971C5.3376 5.73782 4.51886 5.56442 3.96778 5.62747Z" fill="#112035"/>
<path d="M8.78345 7.73975C8.78345 10.0097 10.5784 11.9485 12.9244 11.9485C15.2547 11.9485 17.0497 10.0097 17.0497 7.73975C17.0497 5.46984 15.2547 3.62554 12.9244 3.62554C10.5784 3.62554 8.78345 5.46984 8.78345 7.73975ZM10.8618 7.75551C10.8618 6.4314 11.8695 5.53289 12.9402 5.53289C14.0108 5.53289 15.0028 6.4314 15.0028 7.75551C15.0028 9.1742 14.0108 10.0097 12.9402 10.0097C11.8695 10.0097 10.8618 9.1742 10.8618 7.75551Z" fill="#112035"/>
<path d="M20.3635 11.6648L18.3166 11.649V3.94081H20.3635V5.09152C20.6154 4.47676 20.9933 4.09844 21.7648 3.8147C22.3317 3.60978 23.2921 3.65707 23.8274 3.97233L23.2606 5.84816C22.6308 5.54866 21.5916 5.50137 20.9933 6.17919C20.458 6.79395 20.3635 7.25108 20.3635 9.3003V11.6648Z" fill="#112035"/>
<path d="M32.1112 0.173396L30.0486 0.189159L30.0644 4.55557C29.2771 3.75165 28.2537 3.59402 27.4664 3.6886C26.0651 3.84623 24.3489 4.87084 24.1599 7.39295C23.9395 10.3564 26.0651 11.9328 27.7656 11.9328C28.915 11.9328 29.6392 11.5072 30.0959 10.8451L30.1746 11.6648L32.1427 11.6806L32.1112 0.173396ZM30.0959 7.77127C30.0959 8.66978 29.7022 9.91507 28.2222 9.97813C27.057 10.0254 26.2068 8.98504 26.2068 7.78703C26.2068 6.49445 27.0885 5.53289 28.1592 5.54866C29.4188 5.56442 30.0959 6.52598 30.0959 7.77127Z" fill="#112035"/>
<path d="M35.9041 0.204922H33.7155V11.7121H35.9041V0.204922Z" fill="#112035"/>
<path d="M37.4753 7.75551C37.4753 4.93389 39.5222 3.65707 41.6163 3.65707C43.6946 3.65707 45.7257 4.93389 45.4896 8.30722L39.6166 8.37027C39.6166 8.98504 40.1992 9.99389 41.4903 10.0727C42.435 10.1358 43.0333 9.69439 43.3797 9.03233L45.3164 9.63133C44.9227 10.5929 43.6946 11.8224 41.6478 11.8224C39.1285 11.8224 37.4753 10.0097 37.4753 7.75551ZM39.6166 6.80971L43.3167 6.79395C43.3167 6.05308 42.5295 5.24916 41.3014 5.32797C40.5613 5.37526 39.7111 5.92697 39.6166 6.80971Z" fill="#112035"/>
<path d="M51.5527 6.21071L53.3476 5.46984C52.7808 3.97233 50.9229 3.35757 49.7262 3.49944C47.9313 3.72012 46.9079 4.99694 46.9079 6.16342C46.9079 7.07769 47.7738 7.91314 48.7343 8.21264C49.5373 8.46485 51.5212 8.52791 51.4267 9.44218C51.3637 10.0254 50.4033 10.2146 49.7735 10.0727C49.1437 9.93083 48.6556 9.42641 48.4666 8.92199L46.6087 9.72591C47.0023 10.719 48.0573 11.9328 50.1514 11.9328C52.4344 11.9328 53.5051 10.5456 53.5051 9.48946C53.5051 8.44909 52.9855 7.42448 51.285 7.01464C49.6475 6.62056 48.939 6.54174 48.939 5.9585C48.939 5.54866 49.553 5.32797 50.0884 5.32797C50.5135 5.32797 51.3008 5.56442 51.5527 6.21071Z" fill="#112035"/>
<path d="M59.702 6.21071L61.497 5.46984C60.9301 3.97233 59.0722 3.35757 57.8756 3.49944C56.0806 3.72012 55.0572 4.99694 55.0572 6.16342C55.0572 7.07769 55.9232 7.91314 56.8836 8.21264C57.6866 8.46485 59.6705 8.52791 59.5761 9.44218C59.5131 10.0254 58.5526 10.2146 57.9228 10.0727C57.293 9.93083 56.8049 9.42641 56.616 8.92199L54.758 9.72591C55.1517 10.719 56.2066 11.9328 58.3007 11.9328C60.5837 11.9328 61.6544 10.5456 61.6544 9.48946C61.6544 8.44909 61.1348 7.42448 59.4343 7.01464C57.7969 6.62056 57.0883 6.54174 57.0883 5.9585C57.0883 5.54866 57.7024 5.32797 58.2377 5.32797C58.6628 5.32797 59.4501 5.56442 59.702 6.21071Z" fill="#112035"/>
<path d="M64.3087 11.7594C65.0645 11.7594 65.6943 11.1288 65.6943 10.3564C65.6943 9.59981 65.0645 8.96928 64.3087 8.96928C63.5372 8.96928 62.9074 9.59981 62.9074 10.3564C62.9074 11.1288 63.5372 11.7594 64.3087 11.7594Z" fill="url(#paint0_linear_10430_535148)"/>
<path d="M68.2582 2.55364C68.9667 2.55364 69.5493 2.00193 69.5493 1.27682C69.5493 0.551714 68.9667 0 68.2582 0C67.5339 0 66.9513 0.551714 66.9513 1.27682C66.9513 2.00193 67.5339 2.55364 68.2582 2.55364ZM69.3761 3.83046H67.1875V11.7121H69.3761V3.83046Z" fill="url(#paint1_linear_10430_535148)"/>
<path d="M70.8107 7.73975C70.8107 10.0097 72.6057 11.9485 74.9517 11.9485C77.282 11.9485 79.0769 10.0097 79.0769 7.73975C79.0769 5.46984 77.282 3.62554 74.9517 3.62554C72.6057 3.62554 70.8107 5.46984 70.8107 7.73975ZM72.8891 7.75551C72.8891 6.4314 73.8968 5.53289 74.9674 5.53289C76.0381 5.53289 77.03 6.4314 77.03 7.75551C77.03 9.1742 76.0381 10.0097 74.9674 10.0097C73.8968 10.0097 72.8891 9.1742 72.8891 7.75551Z" fill="url(#paint2_linear_10430_535148)"/>
<defs>
<linearGradient id="paint0_linear_10430_535148" x1="104.121" y1="9.58012" x2="102.316" y2="-9.45049" gradientUnits="userSpaceOnUse">
<stop stop-color="#FF8888"/>
<stop offset="1" stop-color="#FAD7A1"/>
</linearGradient>
<linearGradient id="paint1_linear_10430_535148" x1="104.121" y1="9.58012" x2="102.316" y2="-9.45049" gradientUnits="userSpaceOnUse">
<stop stop-color="#FF8888"/>
<stop offset="1" stop-color="#FAD7A1"/>
</linearGradient>
<linearGradient id="paint2_linear_10430_535148" x1="104.121" y1="9.58012" x2="102.316" y2="-9.45049" gradientUnits="userSpaceOnUse">
<stop stop-color="#FF8888"/>
<stop offset="1" stop-color="#FAD7A1"/>
</linearGradient>
</defs>
</svg>
